# xmcd CD database file
#
# Track frame offsets:
#	150
#	14065
#	32192
#	48887
#	64787
#	81577
#	92580
#	105917
#	120037
#	136800
#	154490
#	168535
#
# Disc length: 2508 seconds
#
# Revision: 0
# Processed by: cddbd v1.4b41PL1 Copyright (c) Steve Scherf et al.
# Submitted via: CD2WAV32(EN) R3.17
#
DISCID=9509ca0c
DTITLE=Olivia Newton-John - Come on Over
DYEAR=1900
DGENRE=
TTITLE0=Jolene
TTITLE1=Pony Ride
TTITLE2=Come On Over
TTITLE3=It'll Be Me
TTITLE4=Greensleeves
TTITLE5=Blue Eyes Crying In  The Rain
TTITLE6=Don't Throw It All Away
TTITLE7=Who Are You Now?
TTITLE8=Smile For Me
TTITLE9=Small Talk And Pride
TTITLE10=Wrap Me In Your Arms
TTITLE11=The Long And Winding Road
EXTD=
EXTT0=
EXTT1=
EXTT2=
EXTT3=
EXTT4=
EXTT5=
EXTT6=
EXTT7=
EXTT8=
EXTT9=
EXTT10=
EXTT11=
PLAYORDER=
